<?xml version="1.0" encoding="UTF-8" standalone="no"?>
<svg
   xmlns:dc="http://purl.org/dc/elements/1.1/"
   xmlns:cc="http://creativecommons.org/ns#"
   xmlns:rdf="http://www.w3.org/1999/02/22-rdf-syntax-ns#"
   xmlns:svg="http://www.w3.org/2000/svg"
   xmlns="http://www.w3.org/2000/svg"
   xmlns:sodipodi="http://sodipodi.sourceforge.net/DTD/sodipodi-0.dtd"
   xmlns:inkscape="http://www.inkscape.org/namespaces/inkscape"
   id="svg"
   version="1.1"
   width="400"
   height="300"
   viewBox="0, 0, 400,300"
   sodipodi:docname="image2vector (1).svg"
   inkscape:version="0.92.4 (5da689c313, 2019-01-14)">
  <metadata
     id="metadata3779">
    <rdf:RDF>
      <cc:Work
         rdf:about="">
        <dc:format>image/svg+xml</dc:format>
        <dc:type
           rdf:resource="http://purl.org/dc/dcmitype/StillImage" />
      </cc:Work>
    </rdf:RDF>
  </metadata>
  <defs
     id="defs3777" />
  <sodipodi:namedview
     pagecolor="#ffffff"
     bordercolor="#666666"
     borderopacity="1"
     objecttolerance="10"
     gridtolerance="10"
     guidetolerance="10"
     inkscape:pageopacity="0"
     inkscape:pageshadow="2"
     inkscape:window-width="1920"
     inkscape:window-height="1027"
     id="namedview3775"
     showgrid="false"
     inkscape:zoom="8.0893016"
     inkscape:cx="225.19144"
     inkscape:cy="159.27991"
     inkscape:window-x="1912"
     inkscape:window-y="-8"
     inkscape:window-maximized="1"
     inkscape:current-layer="svgg" />
  <g
     id="svgg"
     transform="translate(-5.3156629,-1.7306809)">
    <path
       id="path0"
       transform="translate(5.3156629,1.7306809)"
       style="fill:#04b4de;fill-rule:evenodd;stroke:none"
       d="m 161.98438,93.693359 c -0.41,0 -0.45899,3.767657 -0.45899,34.972661 v 34.97265 l 0.73633,0.73633 c 0.405,0.405 0.87783,0.73633 1.04883,0.73633 0.171,0 0.67228,0.40539 1.11328,0.90039 0.441,0.495 0.93089,0.90039 1.08789,0.90039 0.405,0 11.00372,10.57923 11.01172,10.99023 0.003,0.187 0.47673,0.69968 1.05273,1.13868 l 1.04688,0.79882 1.27929,-0.96484 c 0.705,-0.531 1.82047,-1.62278 2.48047,-2.42578 0.66,-0.804 1.43657,-1.74961 1.72657,-2.09961 2.49899,-3.009 5.63504,-12.00319 6.62304,-18.99219 0.59,-4.18 0.98839,-17.2539 0.52539,-17.2539 -0.178,0 -0.32422,-0.40344 -0.32422,-0.89844 0,-0.495 -0.13578,-0.90039 -0.30078,-0.90039 -0.165,0 -0.29883,-0.33896 -0.29883,-0.75196 0,-0.412 -0.13864,-0.75 -0.30664,-0.75 -0.176,0 -0.22618,-0.317 -0.11718,-0.75 0.116,-0.462 0.0605,-0.75 -0.14454,-0.75 -0.18299,0 -0.33203,-0.338 -0.33203,-0.75 0,-0.413 -0.13578,-0.75 -0.30078,-0.75 -0.165,0 -0.29883,-0.26203 -0.29883,-0.58203 0,-0.32 -0.14245,-0.66939 -0.31445,-0.77539 -0.171,-0.107 -0.22891,-0.45158 -0.12891,-0.76758 0.10201,-0.322 0.0423,-0.57617 -0.13671,-0.57617 -0.177,0 -0.32227,-0.26961 -0.32227,-0.59961 0,-0.331 -0.13383,-0.60156 -0.29883,-0.60156 -0.165,0 -0.30078,-0.26961 -0.30078,-0.59961 0,-0.33 -0.14431,-0.59961 -0.32031,-0.59961 -0.184,0 -0.23791,-0.25561 -0.12891,-0.59961 0.109,-0.344 0.0531,-0.59961 -0.13086,-0.59961 -0.176,0 -0.32031,-0.27156 -0.32031,-0.60156 0,-0.33 -0.11767,-0.59961 -0.26367,-0.59961 -0.294,0 -0.72725,-1.13861 -0.65625,-1.72461 0.025,-0.206 -0.0936,-0.375 -0.26563,-0.375 -0.172,0 -0.31445,-0.20417 -0.31445,-0.45117 0,-0.248 -0.13478,-0.44922 -0.30078,-0.44922 -0.165,0 -0.29883,-0.26961 -0.29883,-0.59961 0,-0.33 -0.14436,-0.60156 -0.31836,-0.60156 -0.175,0 -0.23004,-0.14241 -0.12305,-0.31641 0.10801,-0.173 -0.0866,-0.56037 -0.43164,-0.85937 -0.345,-0.299 -0.62695,-0.69777 -0.62695,-0.88477 0,-0.187 -0.14903,-0.33984 -0.33203,-0.33984 -0.183,0 -0.25516,-0.20222 -0.16016,-0.44922 0.095,-0.248 0.0409,-0.45117 -0.11914,-0.45117 -0.159,0 -0.28906,-0.23735 -0.28906,-0.52735 0,-0.291 -0.27433,-0.70015 -0.61133,-0.91015 -0.336,-0.211 -0.52783,-0.52046 -0.42383,-0.68945 0.105,-0.16801 -0.0925,-0.55061 -0.4375,-0.84961 -0.345,-0.3 -0.6289,-0.69777 -0.6289,-0.88477 0,-0.186 -0.1253,-0.33984 -0.2793,-0.33984 -0.153,0 -0.37614,-0.30379 -0.49414,-0.67578 -0.117,-0.371 -0.45781,-0.84565 -0.75781,-1.05665 -0.299,-0.211 -0.4813,-0.548 -0.4043,-0.75 0.076,-0.202 -0.24865,-0.62736 -0.72265,-0.94335 -0.577,-0.386 -0.81185,-0.756 -0.71485,-1.125 0.079,-0.303 -7.3e-4,-0.55079 -0.17773,-0.55079 -0.402,0 -1.84961,-1.42431 -1.84961,-1.82031 0,-0.161 -1.12124,-1.40372 -2.49024,-2.76172 -1.37,-1.358 -2.58136,-2.708 -2.69336,-2.999998 -0.112,-0.293 -0.44332,-0.621468 -0.73632,-0.730468 -0.292,-0.108 -1.5006,-1.186531 -2.6836,-2.394532 -1.183,-1.207999 -2.35075,-2.195312 -2.59375,-2.195312 -0.243,0 -0.52023,-0.203172 -0.61523,-0.451172 -0.095,-0.248 -0.37981,-0.449219 -0.63281,-0.449219 z" />
    <path
       id="path1"
       transform="translate(5.3156629,1.7306809)"
       style="fill:#d7d51c;fill-rule:evenodd;stroke:none"
       d="m 147.92383,105.99609 0.19922,23.78125 c 0.109,13.079 0.19822,27.86543 0.19922,32.85743 v 9.07812 h 0.75195 c 0.412,0 0.75,-0.14431 0.75,-0.32031 0,-0.18 0.25217,-0.23972 0.57617,-0.13672 0.377,0.12 0.67909,10e-4 0.87109,-0.3418 0.239,-0.427 0.37716,-0.45539 0.74414,-0.15039 0.36001,0.299 0.48047,0.29702 0.60547,-0.0137 0.119,-0.297 0.16169,-0.29918 0.17969,-0.0117 0.035,0.55 0.62305,0.4584 0.62305,-0.0977 0,-0.30896 0.23378,-0.44926 0.67578,-0.40624 1.526,0.15 2.45119,-1.38651 1.24219,-2.0625 -0.265,-0.14905 -0.59633,-0.86385 -0.73633,-1.58985 -0.366,-1.894 -0.35078,-6.35109 0.0195,-6.12109 0.199,0.123 0.29883,-8.49779 0.29883,-25.63282 v -25.82031 l -0.75,-0.1875 c -0.413,-0.104 -0.75,-0.30808 -0.75,-0.45508 0,-0.147 -0.26961,-0.26953 -0.59961,-0.26953 -0.331,0 -0.60156,-0.14903 -0.60156,-0.33203 0,-0.182 -0.20122,-0.2532 -0.44922,-0.1582 -0.247,0.095 -0.44922,0.0428 -0.44922,-0.11719 0,-0.16 -0.20317,-0.29101 -0.45117,-0.29101 -0.248,0 -0.44922,-0.13579 -0.44922,-0.30079 0,-0.165 -0.26961,-0.30078 -0.59961,-0.30078 -0.33,0 -0.60156,-0.13382 -0.60156,-0.29882 0,-0.16501 -0.29144,-0.30079 -0.64844,-0.30079 z m -14.00391,11.70313 v 35.85937 35.85938 h 1.06836 c 0.635,0 0.99186,0.11983 0.88086,0.29883 -0.116,0.187 0.49681,0.30078 1.63281,0.30078 1.136,0 1.81836,0.12498 1.81836,0.33398 0,0.225 0.43322,0.26972 1.32422,0.13672 0.814,-0.122 1.39858,-0.0788 1.51758,0.11524 0.107,0.173 0.72595,0.31445 1.37695,0.31445 0.65,0 1.1836,0.13383 1.1836,0.29883 0,0.165 0.53922,0.30078 1.19922,0.30078 0.65996,0 1.20117,0.14622 1.20117,0.32422 0,0.204 0.33243,0.25 0.89843,0.125 0.567,-0.124 0.90235,-0.0771 0.90235,0.12695 0,0.178 0.47083,0.32422 1.04883,0.32422 0.577,0 1.05078,0.13578 1.05078,0.30078 0,0.165 0.40539,0.29883 0.90039,0.29883 0.495,0 0.90039,0.14903 0.90039,0.33203 0,0.205 0.287,0.26248 0.75,0.14648 0.432,-0.109 0.75,-0.0588 0.75,0.11719 0,0.168 0.40539,0.30469 0.90039,0.30469 0.495,0 0.90039,0.13578 0.90039,0.30078 0,0.165 0.337,0.29883 0.75,0.29883 0.412,0 0.75,0.14431 0.75,0.32031 0,0.179 0.25417,0.24067 0.57617,0.13867 0.316,-0.1 0.66058,-0.0431 0.76758,0.12891 0.106,0.172 0.45539,0.3125 0.77539,0.3125 0.32,0 0.58203,0.13578 0.58203,0.30078 0,0.165 0.337,0.29883 0.75,0.29883 0.412,0 0.75,0.15094 0.75,0.33594 0,0.187 0.26361,0.26668 0.59961,0.17968 0.33,-0.087 0.59961,-0.0367 0.59961,0.11328 0,0.149 0.27156,0.27344 0.60156,0.27344 0.33,0 0.59961,0.13383 0.59961,0.29883 0,0.165 0.337,0.30078 0.75,0.30078 0.412,0 0.75,0.13006 0.75,0.28906 0,0.16 0.18892,0.21986 0.41992,0.13086 0.23,-0.089 0.50819,-0.0168 0.61719,0.16016 0.109,0.176 0.46125,0.32031 0.78125,0.32031 0.32,0 0.58203,0.13383 0.58203,0.29883 0,0.165 0.27057,0.30078 0.60157,0.30078 0.33,0 0.5996,0.13102 0.5996,0.29102 0,0.16 0.20318,0.21218 0.45118,0.11718 0.247,-0.095 0.44922,-0.0218 0.44922,0.16016 0,0.183 0.26984,0.33203 0.5996,0.33203 0.33001,0 0.59961,0.13383 0.59961,0.29883 0,0.166 0.27157,0.30078 0.60157,0.30078 0.33,0 0.59961,0.14903 0.59961,0.33203 0,0.182 0.20317,0.25516 0.45117,0.16016 0.247,-0.095 0.44922,-0.0428 0.44922,0.11719 0,0.16 0.20884,0.29101 0.46484,0.29101 0.255,0 0.86261,0.20699 1.34961,0.45899 0.487,0.251 0.88195,0.35261 0.87695,0.22461 -0.018,-0.444 -1.46362,-1.88477 -1.89062,-1.88477 -0.236,0 -0.96795,-0.60189 -1.62696,-1.33789 -0.65898,-0.736 -1.27985,-1.2553 -1.38085,-1.1543 -0.101,0.101 -0.55863,-0.22842 -1.01563,-0.73242 -0.456,-0.505 -1.12528,-1.00533 -1.48828,-1.11133 -0.363,-0.107 -0.7418,-0.45067 -0.8418,-0.76367 -0.101,-0.318 -0.35898,-0.50106 -0.58398,-0.41406 -0.222,0.085 -0.5846,-0.10583 -0.8086,-0.42383 -0.223,-0.317 -0.71103,-0.67206 -1.08203,-0.78906 -0.372,-0.118 -0.67383,-0.34014 -0.67383,-0.49414 0,-0.153 -0.18229,-0.2793 -0.40429,-0.2793 -0.222,0 -0.64641,-0.26775 -0.94141,-0.59375 -0.296,-0.327 -0.64339,-0.52631 -0.77539,-0.44531 -0.131,0.082 -0.4415,-0.14024 -0.6875,-0.49024 -0.245,-0.351 -0.59148,-0.54654 -0.77148,-0.43554 -0.179,0.11 -0.4031,0.003 -0.4961,-0.24024 -0.094,-0.243 -0.49843,-0.524 -0.89843,-0.625 -0.401,-0.1 -0.72852,-0.31456 -0.72852,-0.47656 0,-0.162 -0.20122,-0.29492 -0.44922,-0.29492 -0.248,0 -0.45117,-0.13102 -0.45117,-0.29102 0,-0.16 -0.20222,-0.21219 -0.44922,-0.11719 -0.248,0.095 -0.44922,0.0219 -0.44922,-0.16015 0,-0.183 -0.27156,-0.33203 -0.60156,-0.33203 -0.331,0 -0.59961,-0.13578 -0.59961,-0.30078 0,-0.165 -0.20317,-0.29883 -0.45117,-0.29883 -0.247,0 -0.44922,-0.14903 -0.44922,-0.33203 0,-0.183 -0.20317,-0.25516 -0.45117,-0.16016 -0.248,0.095 -0.44922,0.0428 -0.44922,-0.11719 0,-0.16 -0.20222,-0.29101 -0.44922,-0.29101 -0.248,0 -0.45117,-0.13578 -0.45117,-0.30078 0,-0.165 -0.26961,-0.29883 -0.59961,-0.29883 -0.331,0 -0.60156,-0.13102 -0.60156,-0.29102 0,-0.16 -0.20122,-0.21414 -0.44922,-0.11914 -0.247,0.095 -0.44922,0.0248 -0.44922,-0.1582 0,-0.183 -0.27156,-0.33203 -0.60156,-0.33203 -0.33,0 -0.59961,-0.13578 -0.59961,-0.30078 0,-0.165 -0.20222,-0.29883 -0.44922,-0.29883 -0.248,0 -0.45117,-0.15099 -0.45117,-0.33399 0,-0.182 -0.20508,-0.25225 -0.45508,-0.15625 -0.25,0.096 -0.92877,-0.092 -1.50977,-0.41797 -0.58,-0.326 -1.25214,-0.59375 -1.49414,-0.59375 -0.243,0 -0.4414,-0.14431 -0.4414,-0.32031 0,-0.184 -0.25561,-0.2379 -0.59961,-0.1289 -0.345,0.109 -0.60157,0.0531 -0.60157,-0.13086 0,-0.176 -0.21737,-0.32032 -0.48437,-0.32032 -0.18552,0 -0.55375,-0.20737 -0.9336,-0.46875 -0.0672,0.0448 -0.15027,0.056 -0.27734,-0.0371 -0.18432,-0.13504 -0.67362,-0.45072 -0.73633,-0.77539 l -0.41797,-0.36914 0.002,-0.45117 c -0.005,0.0327 -0.009,0.0663 -0.0273,0.0937 -0.0308,0.0469 -0.0146,-0.11193 -0.0117,-0.16797 0.004,-0.0649 0.0293,-0.10201 0.0391,-0.14648 l 0.0742,-29.88086 c 0.085,-33.776 0.22595,-31.41211 -1.87305,-31.41211 -0.749,0 -1.022,-0.10966 -0.875,-0.34766 0.157,-0.255 -0.19722,-0.29901 -1.32422,-0.16601 -0.863,0.103 -1.61584,0.0584 -1.71484,-0.10156 -0.097,-0.157 -0.50716,-0.28516 -0.91016,-0.28516 z m 118.47852,0.45312 c -0.62035,0.0144 -0.89303,0.12796 -0.98828,0.37696 -0.129,0.335 -0.45704,0.39876 -1.33204,0.25976 -1.507,-0.241 -1.44806,-0.62789 -1.28906,8.28711 0.125,7.018 0.16208,7.42774 0.69532,7.42774 0.30896,0 0.56445,0.13382 0.56445,0.29882 0,0.165 0.337,0.30079 0.75,0.30079 0.413,0 0.75,0.11771 0.75,0.26171 0,0.144 0.52783,0.34522 1.17383,0.44922 0.647,0.103 1.23654,0.35746 1.31054,0.56446 0.352,0.987 0.44874,-0.59339 0.55274,-9.02539 l 0.11328,-9.09766 -1.5586,-0.0859 c -0.29024,-0.016 -0.5354,-0.0224 -0.74218,-0.0176 z" />
    <path
       id="path2"
       transform="translate(5.3156629,1.7306809)"
       style="fill:#bc1484;fill-rule:evenodd;stroke:none"
       d="m 198.32031,143.73047 c -0.091,-0.207 -0.1205,1.78578 -0.0625,4.42578 0.291,13.411 4.98517,26.1133 11.32617,30.6543 l 1.32227,0.94726 0.96875,-0.79687 c 0.533,-0.438 0.9688,-0.944 0.9668,-1.125 -0.004,-0.483 10.04373,-10.52783 11.05273,-11.04883 0.472,-0.245 1.08338,-0.78994 1.35938,-1.21094 0.276,-0.421 0.68043,-0.76562 0.89843,-0.76562 1.262,0 1.40591,-0.80555 1.50391,-8.43555 0.052,-4.025 0.0416,-6.40697 -0.0234,-5.29297 -0.127,2.181 -0.58231,2.53856 -2.19531,1.72656 -1.46,-0.735 -1.72503,-0.83725 -2.70703,-1.03125 -0.968,-0.191 -1.886,-0.5164 -3,-1.0664 -0.253,-0.125 -0.928,-0.3206 -1.5,-0.4336 -0.979,-0.194 -1.91249,-0.52707 -3.02149,-1.08007 -0.264,-0.132 -1.1099,-0.33422 -1.8789,-0.44922 -0.769,-0.115 -1.4725,-0.33057 -1.5625,-0.47657 -0.09,-0.146 -0.48591,-0.26562 -0.87891,-0.26562 -0.393,0 -0.79176,-0.12244 -0.88476,-0.27344 -0.093,-0.15 -0.70819,-0.36556 -1.36719,-0.47656 -0.658,-0.111 -1.27224,-0.32361 -1.36524,-0.47461 -0.093,-0.151 -0.49176,-0.27539 -0.88476,-0.27539 -0.393,0 -0.78981,-0.12244 -0.88281,-0.27344 -0.093,-0.151 -0.70819,-0.36556 -1.36719,-0.47656 -0.658,-0.111 -1.27419,-0.32461 -1.36719,-0.47461 -0.093,-0.151 -0.48981,-0.27539 -0.88281,-0.27539 -0.393,0 -0.78795,-0.11677 -0.87695,-0.25977 -0.089,-0.143 -0.6918,-0.34717 -1.3418,-0.45117 -0.65,-0.104 -1.25566,-0.35845 -1.34766,-0.56445 z" />
    <path
       id="path3"
       transform="translate(5.3156629,1.7306809)"
       style="fill:#cc0d5f;fill-rule:evenodd;stroke:none"
       d="m 226.19141,94.632812 c -0.375,0.004 -2.59577,2.024614 -5.92579,5.390628 -2.929,2.962 -5.32617,5.51773 -5.32617,5.67773 0,0.16 -0.43861,0.71152 -0.97461,1.22852 -0.537,0.517 -0.93762,1.07237 -0.89062,1.23437 0.047,0.162 -0.291,0.61867 -0.75,1.01367 -0.46,0.395 -0.83594,0.86397 -0.83594,1.04297 0,0.179 -0.21547,0.48278 -0.48047,0.67578 -0.265,0.194 -0.57926,0.65635 -0.69726,1.02735 -0.117,0.37 -0.33919,0.67383 -0.49219,0.67383 -0.154,0 -0.2793,0.19459 -0.2793,0.43359 0,0.238 -0.27342,0.62342 -0.60742,0.85742 -0.362,0.253 -0.53569,0.61263 -0.42969,0.89063 0.117,0.303 -0.0384,0.53411 -0.44336,0.66211 -0.346,0.11 -0.62109,0.45434 -0.62109,0.77734 0,0.319 -0.13202,0.58008 -0.29102,0.58008 -0.16,0 -0.21218,0.20317 -0.11718,0.45117 0.095,0.247 0.0228,0.44922 -0.16016,0.44922 -0.183,0 -0.33203,0.20122 -0.33203,0.44922 0,0.248 -0.11391,0.45117 -0.25391,0.45117 -0.14,0 -0.5055,0.60761 -0.8125,1.34961 -0.306,0.743 -0.66392,1.35156 -0.79492,1.35156 -0.131,0 -0.24023,0.20122 -0.24023,0.44922 0,0.247 -0.12149,0.45117 -0.27149,0.45117 -0.149,0 -0.20123,0.26961 -0.11523,0.59961 0.088,0.336 0.0103,0.59961 -0.17774,0.59961 -0.184,0 -0.33398,0.27719 -0.33398,0.61719 0,0.34 -0.13578,0.53559 -0.30078,0.43359 -0.17,-0.106 -0.30078,0.14603 -0.30078,0.58203 0,0.422 -0.13102,0.76758 -0.29102,0.76758 -0.159,0 -0.21219,0.20317 -0.11719,0.45117 0.095,0.248 0.0248,0.44922 -0.1582,0.44922 -0.183,0 -0.33203,0.26961 -0.33203,0.59961 0,0.33 -0.15194,0.59961 -0.33594,0.59961 -0.191,0 -0.26583,0.26714 -0.17383,0.61914 0.095,0.362 -4.6e-4,0.68153 -0.23046,0.76953 -0.22104,0.085 -0.32719,0.40842 -0.24219,0.73242 0.083,0.32 4e-4,0.58008 -0.1836,0.58008 -0.185,0 -0.33593,0.27156 -0.33593,0.60156 0,0.33001 -0.14904,0.59961 -0.33204,0.59961 -0.205,0 -0.26053,0.287 -0.14453,0.75 0.132,0.528 0.0674,0.75 -0.22461,0.75 -0.28,0 -0.36848,0.243 -0.27148,0.75 0.084,0.438 0.005,0.75 -0.19141,0.75 -0.184,0 -0.33593,0.4054 -0.33593,0.90039 0,0.49504 -0.13864,0.9004 -0.30664,0.9004 -0.176,0 -0.22424,0.317 -0.11524,0.75 0.132,0.528 0.0644,0.75 -0.22656,0.75 -0.324,0 -0.39331,0.50517 -0.32031,2.32617 0.141,3.516 0.19007,3.64128 1.58007,3.86328 0.661,0.106 1.27429,0.31012 1.36329,0.45312 0.089,0.143 0.48395,0.25977 0.87695,0.25977 0.393,0 0.78981,0.12439 0.88281,0.27539 0.093,0.15 0.70919,0.36361 1.36719,0.47461 0.659,0.111 1.27419,0.32556 1.36719,0.47656 0.093,0.151 0.48981,0.27344 0.88281,0.27344 0.393,0 0.79176,0.12439 0.88476,0.27539 0.093,0.151 0.70724,0.36361 1.36524,0.47461 0.659,0.111 1.27419,0.32656 1.36719,0.47656 0.093,0.151 0.49176,0.27344 0.88476,0.27344 0.393,0 0.78891,0.11962 0.87891,0.26562 0.09,0.146 0.7935,0.36157 1.5625,0.47657 0.769,0.115 1.6149,0.31722 1.8789,0.44922 1.109,0.553 2.04249,0.88607 3.02149,1.08007 0.572,0.113 1.247,0.3086 1.5,0.4336 1.114,0.55 2.032,0.8754 3,1.0664 1.037,0.205 1.36181,0.32738 2.63281,0.98438 2.571,1.329 2.49506,2.33428 2.41406,-31.76172 -0.034,-14.441 -0.1052,-24.790047 -0.1582,-22.998047 -0.102,3.435997 -0.35364,4.093747 -1.55664,4.093747 -0.342,0 -0.62109,-0.13578 -0.62109,-0.30078 0,-0.165 -0.39682,-0.29883 -0.88282,-0.29883 -0.485,0 -0.9644,-0.13578 -1.0664,-0.30078 -0.102,-0.165 -0.44477,-0.30078 -0.75977,-0.30078 -0.386,0 -0.51639,-0.14622 -0.40039,-0.44922 0.095,-0.248 0.0248,-0.451169 -0.1582,-0.451169 -0.183,0 -0.33203,0.134779 -0.33203,0.300779 0,0.165 -0.20418,0.30078 -0.45118,0.30078 -0.901,0 1.74238,-3.130106 4.35938,-5.162106 0.847,-0.658 0.92941,-0.806778 0.44141,-0.800782 z m 15.4414,75.878908 c -0.162,0 -0.28711,1.24456 -0.28711,2.85156 0,3.71 0.43172,3.71 0.51172,0 0.035,-1.65 -0.0596,-2.85156 -0.22461,-2.85156 z" />
    <path
       id="path4"
       transform="translate(5.3156629,1.7306809)"
       style="fill:#e57c12;fill-rule:evenodd;stroke:none"
       d="m 240.44922,106.04492 c -0.1942,0.0296 -0.30469,0.17286 -0.30469,0.41211 0,0.325 -0.15922,0.44303 -0.44922,0.33203 -0.247,-0.095 -0.44922,-0.0428 -0.44922,0.11719 0,0.159 -0.20317,0.29102 -0.45117,0.29102 -0.248,0 -0.45017,0.10161 -0.45117,0.22461 -0.002,0.12399 -0.30578,0.37178 -0.67578,0.55078 -2.538,1.23 -3.23389,1.72154 -3.08789,2.18554 0.14,0.447 0.76367,3.57503 0.76367,3.83203 0,0.06 0.46239,0.10743 1.02539,0.10743 0.564,0 1.07195,0.11676 1.12695,0.25976 0.055,0.143 0.87522,0.35666 1.82422,0.47266 l 1.72657,0.21094 0.0527,-3.77149 c 0.03,-2.075 0.0622,-4.07436 0.0742,-4.44336 0.013,-0.411 -0.18091,-0.71144 -0.50391,-0.77344 -0.0828,-0.016 -0.15597,-0.0131 -0.2207,-0.008 z m 15,11.6543 -0.82422,0.0293 c -0.454,0.016 -1.16417,0.14515 -1.57617,0.28515 -0.631,0.215 -0.55883,0.24722 0.45117,0.19922 l 1.19922,-0.0566 -0.11328,9.14844 c -0.104,8.477 -0.20074,10.06222 -0.55274,9.07422 -0.074,-0.207 -0.66354,-0.46146 -1.31054,-0.56446 -0.646,-0.104 -1.17383,-0.30522 -1.17383,-0.44922 0,-0.144 -0.337,-0.26171 -0.75,-0.26171 -0.413,0 -0.75,-0.13579 -0.75,-0.30079 0,-0.165 -0.26961,-0.29882 -0.59961,-0.29882 -0.595,0 -0.8617,-5.22274 -0.7207,-14.17774 0.019,-1.26 -0.082,-1.72656 -0.37696,-1.72656 -0.336,0 -0.40429,5.1982 -0.40429,30.9082 0,18.916 -0.1073,30.90821 -0.2793,30.90821 -0.153,0 -0.3657,0.2696 -0.4707,0.5996 -0.105,0.33001 -0.38315,0.59961 -0.61915,0.59961 -0.23697,0 -0.43164,0.12244 -0.43164,0.27344 0,0.15 -0.53921,0.36456 -1.19921,0.47656 -0.661,0.112 -1.20118,0.32557 -1.20118,0.47657 0,0.15 -0.26961,0.27343 -0.59961,0.27343 -0.33,0 -0.59961,0.11772 -0.5996,0.26172 0,0.144 -0.54118,0.34908 -1.20118,0.45508 -0.66,0.105 -1.20117,0.32333 -1.20117,0.48633 0,0.163 -0.26961,0.29883 -0.59961,0.29883 -0.33,0 -0.59961,0.13192 -0.59961,0.29492 0,0.163 -0.53831,0.38328 -1.19531,0.48828 -0.657,0.105 -1.12125,0.30913 -1.03125,0.45313 0.089,0.145 -0.11703,0.26367 -0.45703,0.26367 -0.34,0 -0.61719,0.12339 -0.61719,0.27539 0,0.152 -0.43761,0.37223 -0.97461,0.49023 -0.536,0.117 -1.18536,0.45691 -1.44336,0.75391 -0.257,0.296 -0.83139,0.63119 -1.27539,0.74219 -0.445,0.111 -0.80859,0.3237 -0.80859,0.4707 0,0.147 -0.26961,0.26758 -0.59961,0.26758 -0.33,0 -0.59961,0.12058 -0.59961,0.26758 0,0.147 -0.338,0.35207 -0.75,0.45507 -0.413,0.104 -0.75195,0.32238 -0.75195,0.48438 0,0.162 -0.20122,0.29297 -0.44922,0.29297 -0.247,0 -0.44922,0.13392 -0.44922,0.29492 0,0.162 -0.337,0.37942 -0.75,0.48242 -0.413,0.104 -0.75,0.30808 -0.75,0.45508 0,0.147 -0.20417,0.26758 -0.45117,0.26758 -0.248,0 -0.44922,0.12529 -0.44922,0.27929 0,0.154 -0.23639,0.35622 -0.52539,0.44922 -0.288,0.092 -0.91844,0.50616 -1.39844,0.91992 -0.479,0.414 -1.00206,0.75196 -1.16406,0.75196 -0.161,0 -0.5123,0.25259 -0.7793,0.55859 -0.267,0.307 -0.78153,0.65063 -1.14453,0.76563 -0.363,0.114 -0.73984,0.46334 -0.83984,0.77734 -0.099,0.313 -0.47685,0.66234 -0.83985,0.77734 -0.363,0.116 -1.07503,0.6638 -1.58203,1.2168 -0.507,0.554 -1.06805,1.00586 -1.24805,1.00586 -0.30938,0 -1.36063,1.13539 -1.73632,1.78516 0.0124,0.0271 0.0267,0.0535 0.0351,0.082 0.0136,0.0456 0.002,0.0951 0,0.14258 -0.004,0.0775 -0.0155,0.16628 -0.0234,0.25586 0.0894,-0.002 0.21118,-0.037 0.36719,-0.11915 0.289,-0.151 1.09978,-0.37228 1.80078,-0.48828 0.702,-0.116 1.27539,-0.33337 1.27539,-0.48437 0,-0.15 0.20318,-0.27344 0.45118,-0.27344 0.247,0 0.44921,-0.12911 0.44921,-0.28711 0,-0.157 0.47379,-0.37442 1.05079,-0.48242 0.578,-0.109 1.04882,-0.31589 1.04882,-0.46289 0,-0.147 0.27057,-0.26758 0.60157,-0.26758 0.33,0 0.59961,-0.12244 0.59961,-0.27344 0,-0.15 0.54117,-0.36456 1.20117,-0.47656 0.66,-0.112 1.19922,-0.32656 1.19922,-0.47656 0,-0.151 0.26961,-0.27344 0.59961,-0.27344 0.331,0 0.60156,-0.12625 0.60156,-0.28125 0,-0.155 0.60661,-0.37337 1.34961,-0.48437 0.743,-0.111 1.34961,-0.32175 1.34961,-0.46875 0,-0.146 0.338,-0.26758 0.75,-0.26758 0.413,0 0.75195,-0.1243 0.75195,-0.2793 0,-0.155 0.60661,-0.37337 1.34961,-0.48437 0.743,-0.112 1.34961,-0.32275 1.34961,-0.46875 0,-0.146 0.33895,-0.26758 0.75195,-0.26758 0.412,0 0.75,-0.11767 0.75,-0.26367 0,-0.146 0.74239,-0.35966 1.65039,-0.47266 0.908,-0.114 1.65039,-0.33138 1.65039,-0.48437 0,-0.153 0.40539,-0.2793 0.90039,-0.2793 0.495,0 0.89844,-0.12339 0.89844,-0.27539 0,-0.151 0.87917,-0.37133 1.95117,-0.48633 1.073,-0.114 1.95116,-0.32666 1.95118,-0.47266 0,-0.145 0.53921,-0.26562 1.19921,-0.26562 0.66,0 1.20118,-0.12535 1.20118,-0.27735 0,-0.153 1.21803,-0.37323 2.70703,-0.49023 1.489,-0.116 2.77918,-0.32966 2.86718,-0.47266 0.089,-0.144 0.88935,-0.25976 1.77735,-0.25976 0.889,0 1.69878,-0.13578 1.80078,-0.30078 0.102,-0.165 0.44658,-0.29883 0.76758,-0.29883 0.573,0 0.58203,-0.56438 0.58203,-35.85938 z M 251.12305,118 c -0.261,0 -0.47461,0.12434 -0.47461,0.27734 0,0.153 -0.23639,0.34669 -0.52539,0.42969 -0.289,0.083 -0.13144,0.1257 0.35156,0.0957 0.9,-0.055 1.50344,-0.80273 0.64844,-0.80273 z m -109.79493,72.33789 c -0.63399,0.02 -0.63656,0.0303 -0.0566,0.2793 0.826,0.355 1.1194,0.355 0.9004,0 -0.10204,-0.165 -0.48172,-0.2903 -0.84376,-0.2793 z m 24.02344,2.68359 c -0.546,0.004 -0.58861,0.0619 -0.22461,0.29688 0.581,0.376 0.90039,0.376 0.90039,0 0,-0.165 -0.30478,-0.29888 -0.67578,-0.29688 z m 7.45899,5.8125 c -0.11902,0.009 0.009,0.20068 0.40234,0.61914 0.752,0.80001 1.2168,0.9788 1.2168,0.4668 0,-0.165 -0.20417,-0.30078 -0.45117,-0.30078 -0.248,0 -0.44922,-0.11958 -0.44922,-0.26758 0,-0.147 -0.23258,-0.35779 -0.51758,-0.46679 -0.0942,-0.0362 -0.1615,-0.0536 -0.20117,-0.0508 z m 1.46875,2.60743 c -0.165,0 0.0362,0.19368 0.44922,0.42968 0.413,0.236 0.88578,0.42774 1.05078,0.42774 0.165,0 -0.0362,-0.19174 -0.44922,-0.42774 -0.412,-0.236 -0.88578,-0.42968 -1.05078,-0.42968 z" />
    <path
       id="path5"
       transform="translate(5.3156629,1.7306809)"
       style="fill:#7c0d71;fill-rule:evenodd;stroke:none"
       d="m 228.14258,93.693359 c -0.197,0 -0.31475,10.606811 -0.34375,31.132811 -0.061,42.326 0.0355,39.98438 -1.64649,39.98438 -0.218,0 -0.62243,0.34462 -0.89843,0.76562 -0.276,0.421 -0.88738,0.96594 -1.35938,1.21094 -0.91,0.47 -11.05469,10.53966 -11.05469,10.97266 0,0.651 1.79061,-1.01366 3.59961,-3.34766 0.413,-0.532 0.92663,-1.12159 1.14063,-1.30859 0.214,-0.187 0.552,-0.51457 0.75,-0.72657 0.805,-0.86 1.10933,-1.14723 1.98633,-1.86523 0.505,-0.413 1.67461,-1.45917 2.59961,-2.32617 0.924,-0.866 1.80689,-1.57422 1.96289,-1.57422 0.156,0 0.65246,-0.37022 1.10547,-0.82422 0.453,-0.454 1.19162,-1.09388 1.64062,-1.42188 l 0.81641,-0.59765 v -35.03711 c 0,-23.158 -0.0998,-35.037111 -0.29883,-35.037111 z m -4.11719,2.341797 c -0.0177,-0.03259 -0.21459,0.11275 -0.62109,0.46875 -1.35968,1.190062 -7.04159,7.082244 -8.09571,8.345704 0.90381,-0.99363 1.90725,-2.05859 1.99219,-2.05859 0.0889,0 0.001,0.17842 -0.17969,0.44336 0.91736,-0.90677 1.98084,-1.97202 2.94532,-2.94141 2.442,-2.455515 4.01223,-4.160033 3.95898,-4.257814 z m -6.9043,7.199224 c -1.1371,1.12394 -2.0332,1.98422 -2.0332,1.89843 0,-0.021 0.11269,-0.15374 0.2207,-0.2832 -0.66041,0.72604 -1.27816,1.42329 -1.39257,1.59766 -0.23818,0.36399 -0.33148,0.58875 -0.31446,0.67968 0.0732,-0.0511 0.125,-0.0654 0.125,-0.002 0.12653,-0.0476 0.33618,-0.20976 0.65235,-0.57422 0.48217,-0.55641 2.15131,-2.4524 2.74218,-3.3164 z m -3.39453,3.89062 c -0.0587,0.0221 -0.11675,0.046 -0.125,0.002 -0.28218,0.1968 -0.99282,1.08276 -1.31836,1.45117 -0.28477,0.32175 -0.32159,0.55149 -0.21289,0.61915 0.0515,-0.0415 0.12437,-0.11329 0.14649,-0.11329 0.0299,0 0.0206,0.0525 -0.006,0.12305 0.11778,-0.0256 0.27557,-0.11541 0.46289,-0.30273 0.256,-0.256 1.05273,-1.6853 1.05273,-1.7793 z m -1.51562,2.08203 c -0.0589,0.0128 -0.10727,0.0138 -0.14063,-0.01 -0.33299,0.26833 -1.15451,1.23533 -1.33203,1.44921 -0.208,0.251 -0.67386,1.09961 -0.50586,1.09961 0.15544,-0.15542 0.21003,-0.18366 0.21094,-0.13476 l 0.002,-0.002 c 0.28613,-0.25098 0.73883,-0.7769 0.89258,-0.9629 0.17156,-0.20603 0.75819,-1.11619 0.87305,-1.43945 z m -1.76758,2.4043 c -0.094,0.0821 -0.17013,0.13476 -0.21094,0.13476 l -0.49414,0.15039 c -0.287,0.287 -3.36773,5.98633 -3.05273,5.98633 0.147,0 3.46554,-5.48833 3.56054,-5.73633 0.10085,-0.26186 0.19849,-0.46953 0.19727,-0.53515 z m -4.0957,6.3789 c -0.19421,0.0504 -0.51024,0.45008 -0.81836,1.09571 -0.285,0.598 -0.44544,1.161 -0.35742,1.25 0.089,0.089 0.31214,-0.26511 0.49414,-0.78711 0.182,-0.522 0.45061,-0.94922 0.5996,-0.94922 0.14905,0 0.27149,-0.13578 0.27149,-0.30078 0,-0.243 -0.0729,-0.33881 -0.18945,-0.3086 z M 203.83594,122.5 c -0.165,0 -0.29883,0.20417 -0.29883,0.45117 0,0.248 0.13383,0.44922 0.29883,0.44922 0.165,0 0.30078,-0.20122 0.30078,-0.44922 0,-0.247 -0.13578,-0.45117 -0.30078,-0.45117 z m -2.09961,4.50195 c -0.165,0 -0.30078,0.20222 -0.30078,0.44922 0,0.248 0.13578,0.44922 0.30078,0.44922 0.165,0 0.30078,-0.20122 0.30078,-0.44922 0,-0.247 -0.13578,-0.44922 -0.30078,-0.44922 z m -0.55664,1.24219 c -0.0683,0.0131 -0.12885,0.12902 -0.21485,0.35352 -0.241,0.626 0.0599,1.03486 0.46289,0.63086 0.171,-0.17 0.176,-0.45571 0.0117,-0.72071 -0.115,-0.186 -0.19151,-0.27679 -0.25976,-0.26367 z m -0.34375,1.45898 c -0.166,0 -0.30078,0.20122 -0.30078,0.44922 0,0.248 0.13478,0.44922 0.30078,0.44922 0.165,0 0.30078,-0.20122 0.30078,-0.44922 0,-0.248 -0.13578,-0.44921 -0.30078,-0.44922 z m -1.10352,2.5293 c -0.0669,0.015 -0.12858,0.12081 -0.20508,0.32031 -0.268,0.698 -0.25018,0.75 0.25782,0.75 0.505,0 0.5625,-0.25761 0.1875,-0.84961 -0.101,-0.15949 -0.17336,-0.2357 -0.24024,-0.2207 z m -0.39648,1.3711 c -0.165,0 -0.30078,0.2696 -0.30078,0.5996 0,0.33001 0.13578,0.59961 0.30078,0.59961 0.165,0 0.29883,-0.26956 0.29883,-0.59961 0,-0.33 -0.13383,-0.5996 -0.29883,-0.5996 z m -0.42774,1.52148 c -0.0606,-0.01 -0.14931,0.0536 -0.27343,0.17773 -0.311,0.312 -0.23538,1.30079 0.0996,1.30079 0.16498,0 0.30078,-0.337 0.30078,-0.75 0,-0.49063 -0.0259,-0.71221 -0.12696,-0.72852 z m -0.62304,2.08008 c -0.248,0 -0.44922,0.20122 -0.44922,0.44922 0,0.247 0.20122,0.44922 0.44922,0.44922 0.247,0 0.44918,-0.20222 0.44922,-0.44922 0,-0.248 -0.20222,-0.44922 -0.44922,-0.44922 z m -0.47071,1.5 c -0.172,0 -0.27929,11.9452 -0.27929,30.9082 v 30.90625 h 0.74414 c 0.005,0 0.007,-0.002 0.0117,-0.002 0.0151,-0.0142 0.029,-0.0296 0.0449,-0.043 0.005,-0.004 0.01,-0.004 0.0176,-0.01 0.005,-0.0312 0.0116,-0.0628 0.0176,-0.0937 0.0704,-0.0701 0.14201,-0.1374 0.21094,-0.20898 l 0.006,-0.006 c 0.0251,-0.0205 0.051,-0.0401 0.0762,-0.0606 -0.009,0.0162 -0.0437,0.0486 -0.0254,0.0488 0.0187,1.4e-4 0.085,-0.11564 0.0859,-0.11719 0.05,-0.0605 0.10036,-0.12116 0.15039,-0.18164 -0.0109,0.015 -0.0466,0.0577 -0.0332,0.0449 0.0541,-0.0517 0.10198,-0.11054 0.15625,-0.1621 0.004,-0.004 -0.003,0.0117 -0.004,0.0176 -0.0116,0.029 -0.0236,0.0589 -0.0352,0.0879 0.0284,-0.0625 0.0549,-0.12634 0.082,-0.18945 0.0737,-0.1125 0.10397,-0.13482 0.17382,-0.20508 -0.005,0.004 -0.01,0.01 -0.0156,0.0137 -0.0296,0.0215 0.0977,-0.10631 0.0723,-0.0801 -0.0456,0.0473 -0.034,0.0436 -0.0566,0.0664 0.0312,-0.0247 0.061,-0.0504 0.0898,-0.0781 -0.008,0.003 -0.0436,0.0346 0.0547,-0.0723 -0.008,0.0158 -0.0187,0.0339 -0.0254,0.0469 0.004,-0.003 0.008,-0.006 0.0117,-0.01 0.0892,-0.14175 0.18134,-0.26824 0.28907,-0.39453 -0.006,0.007 -0.0131,0.013 -0.0195,0.0195 0.0217,-0.0275 0.09,-0.10984 0.0664,-0.084 -0.0189,0.0207 -0.0293,0.0439 -0.0469,0.0644 0.0332,-0.0339 0.0664,-0.0677 0.0996,-0.10156 0.0444,-0.0377 0.0813,-0.0836 0.12695,-0.11914 0.002,-0.003 0.004,-0.003 0.006,-0.006 1.9e-4,1e-5 0.002,-0.008 0.002,-0.008 0.002,9.9e-4 0.008,-0.022 0.01,-0.0137 0.0191,-0.0217 0.0226,-0.0221 0.0273,-0.0176 -0.004,-0.0456 -0.016,-0.0921 -0.008,-0.13672 0.005,-0.0237 0.0414,-0.0567 0.0664,-0.0859 0.0345,-0.1813 0.11939,-0.32813 0.23828,-0.32813 0.147,0 0.3539,-0.47378 0.4629,-1.05078 0.108,-0.578 0.32542,-1.05077 0.48242,-1.05078 0.158,0 0.28711,-0.20122 0.28711,-0.44922 0,-0.247 0.13292,-0.44922 0.29492,-0.44922 0.162,0 0.37842,-0.337 0.48242,-0.75 0.103,-0.413 0.30903,-0.75 0.45703,-0.75 0.147,0 0.26563,-0.27155 0.26563,-0.60156 0,-0.33 0.12153,-0.59961 0.26953,-0.59961 0.147,0 0.35208,-0.337 0.45508,-0.75 0.104,-0.412 0.32042,-0.75 0.48242,-0.75 0.162,0 0.29297,-0.20317 0.29297,-0.45117 0,-0.248 0.13292,-0.44921 0.29492,-0.44922 0.162,0 0.37942,-0.33799 0.48242,-0.75 0.104,-0.413 0.31003,-0.75 0.45703,-0.75 0.147,0 0.26758,-0.20317 0.26758,-0.45117 0,-0.247 0.1253,-0.44922 0.2793,-0.44922 0.154,0 0.35622,-0.23639 0.44922,-0.52539 0.093,-0.289 0.50692,-0.91844 0.91992,-1.39844 0.414,-0.479 0.75195,-1.02298 0.75195,-1.20898 0,-0.18504 0.26861,-0.53153 0.59961,-0.76953 0.33,-0.238 0.60156,-0.60636 0.60156,-0.81836 0,-0.212 0.337,-0.67811 0.75,-1.03711 0.413,-0.35902 0.75,-0.79384 0.75,-0.96485 0,-0.17099 0.3123,-0.58492 0.69532,-0.91992 1.21297,-1.062 1.31023,-1.88856 0.11523,-0.97656 l -1.00195,0.76367 -1.42969,-1.09765 c -6.859,-5.274 -10.92327,-17.19004 -11.19727,-32.83204 -0.0728,-4.11686 -0.24368,-7.10548 -0.40625,-7.12304 z m 29.57227,33.45117 c -0.15117,0.0407 -0.42141,0.2202 -0.69141,0.4707 -0.604,0.563 -0.80383,0.88672 -0.54883,0.88672 0.258,0 1.47766,-1.22061 1.34766,-1.34961 -0.0197,-0.02 -0.057,-0.0186 -0.10742,-0.008 z m 14.25976,4.05664 c -0.165,0 -0.30078,0.20317 -0.30078,0.45117 0,0.247 0.13578,0.45117 0.30078,0.45117 0.165,0 0.30079,-0.20417 0.30079,-0.45117 0,-0.248 -0.13579,-0.45117 -0.30079,-0.45117 z m -21.81445,3.38867 c 0.008,-0.004 -0.0698,0.0567 -0.0547,0.0469 -0.0211,0.0515 -0.0418,0.10264 -0.0625,0.15429 -0.0587,0.12927 0.0232,-0.0418 -0.25,0.24219 -0.0197,0.0204 0.0498,-0.0303 0.0742,-0.0449 -0.0207,0.0144 -0.0419,0.0285 -0.0625,0.043 0.0152,2e-5 -0.0244,0.0403 -0.0371,0.0606 -0.12159,0.17839 -0.28284,0.32243 -0.43945,0.46875 -0.0293,0.0273 -0.0551,0.0591 -0.0879,0.082 -0.0106,0.007 -0.0223,0.0127 -0.0332,0.0195 -0.008,0.0251 -0.0405,0.067 -0.0645,0.0879 -0.0408,0.0357 -0.0886,0.0627 -0.13476,0.0918 -0.0103,0.0944 0.0122,0.16212 0.10937,0.1621 0.156,0 0.50244,-0.33895 0.77344,-0.75195 0.21346,-0.32619 0.28873,-0.55217 0.26953,-0.66211 z m -0.0762,0.0645 c 0.0872,-0.0593 0.20736,-0.14588 -0.11328,0.0957 -0.0344,0.0259 0.0758,-0.045 0.10351,-0.0781 0.004,-0.005 0.005,-0.009 0.01,-0.0176 z m -2.88086,3.44726 c -0.16731,0.008 -0.4343,0.23125 -0.66992,0.60938 -0.352,0.563 -0.33449,0.58051 0.22851,0.22851 0.333,-0.208 0.60743,-0.48242 0.60743,-0.60742 0,-0.16237 -0.0656,-0.23533 -0.16602,-0.23047 z m -3.04492,3.91992 c -0.16109,0.0303 -0.39066,0.17782 -0.59766,0.41407 -0.484,0.551 -0.12742,0.84617 0.39258,0.32617 0.228,-0.228 0.41406,-0.49194 0.41406,-0.58594 0,-0.0755 -0.0273,-0.12175 -0.0742,-0.14453 -0.0352,-0.0171 -0.0811,-0.0173 -0.13476,-0.01 z m -2.0586,7.2793 c -0.0199,0.021 -0.0386,0.032 -0.0586,0.0547 -0.0295,0.0336 -0.0367,0.0511 -0.0625,0.082 0.005,-0.004 0.009,-0.008 0.0137,-0.0117 -0.009,0.007 0.0149,-0.01 0.0117,-0.008 0.0332,-0.0473 0.0655,-0.0806 0.0957,-0.11719 z m -1.49023,1.19336 c -0.0907,-0.006 -0.20597,0.0726 -0.29297,0.21289 -0.116,0.188 -0.50147,0.46052 -0.85547,0.60352 l -0.64453,0.25976 0.18164,0.006 c 0.0496,-0.0222 0.0985,-0.046 0.14844,-0.0664 0.0131,-0.005 0.0274,0.008 0.041,0.004 0.28765,-0.0809 -0.16159,0.005 0.36523,-0.0937 0.0436,-0.0257 0.0861,-0.0526 0.13086,-0.0762 0.009,-0.005 0.0229,0.002 0.0332,0 0.10648,-0.0246 0.20394,-0.0788 0.3125,-0.0957 -0.0199,0.0154 -0.0803,0.034 -0.0586,0.0469 0.0228,0.0135 0.0415,-0.0319 0.0664,-0.041 0.29544,-0.10827 0.24759,-0.0875 0.26172,-0.0898 0.0236,-0.04 0.0361,-0.0726 0.0859,-0.12695 0.0392,-0.0427 0.0918,-0.0732 0.13867,-0.10742 0.0283,-0.0207 0.0883,-0.0917 0.0879,-0.0566 0.0184,-0.0214 0.038,-0.0413 0.0566,-0.0625 -0.0274,0.0367 -0.10832,0.14701 -0.082,0.10937 0.0592,-0.0856 0.10629,-0.11803 0.13867,-0.15625 0.0305,-0.0898 0.0266,-0.17218 -0.0351,-0.23437 -0.0225,-0.0223 -0.0499,-0.0331 -0.0801,-0.0352 z m -1.05664,0.92578 c 0.01,-0.002 -0.0182,0.009 -0.0273,0.0137 -0.0124,0.008 -0.0248,0.017 -0.0371,0.0254 0.0216,-0.0131 0.0427,-0.0263 0.0645,-0.0391 z m 0.70898,-0.20312 c -0.003,0.004 -0.0415,0.0187 -0.0332,0.0195 0.0103,-0.005 0.0219,-0.009 0.0312,-0.0156 9.5e-4,-0.002 5.4e-4,-0.002 0.002,-0.004 z m -10.02734,2.45898 c -0.003,0.008 -0.0177,0.0325 -0.0234,0.0449 6.8e-4,0.006 0.003,0.0285 0.004,0.0352 0.008,-0.0257 0.0143,-0.0517 0.0195,-0.0801 z m -0.57617,0.66016 c -0.001,0.001 -0.003,5.5e-4 -0.004,0.002 4.6e-4,-6.6e-4 -0.003,0.008 -0.002,0.006 0.002,-0.003 0.004,-0.005 0.006,-0.008 z" />
    <path
       id="path6"
       transform="translate(5.3156629,1.7306809)"
       style="fill:#e92b0c;fill-rule:evenodd;stroke:none"
       d="m 227.32422,93.693359 c -0.218,0 -0.51797,0.321844 -0.66797,0.714844 -0.149,0.393 -0.72058,1.020531 -1.26758,1.394531 -2.131,1.452 -4.91803,4.792966 -3.99805,4.792966 0.24701,0 0.45118,-0.13578 0.45118,-0.30078 0,-0.166 0.14903,-0.300779 0.33203,-0.300779 0.183,0 0.2532,0.203169 0.1582,0.451169 -0.116,0.303 0.0144,0.44922 0.40039,0.44922 0.315,0 0.65777,0.13578 0.75977,0.30078 0.102,0.165 0.5814,0.30078 1.0664,0.30078 0.486,0 0.88282,0.13383 0.88282,0.29883 0,0.434 1.17576,0.3696 1.63476,-0.0898 0.571,-0.571 0.80205,-8.011721 0.24805,-8.011721 z m 13.61133,12.011721 c -0.19964,-0.003 -0.1923,0.095 -0.0156,0.33203 0.186,0.251 0.25855,2.07512 0.18555,4.70312 l -0.11719,4.29493 -1.69726,-0.20899 c -0.933,-0.114 -1.73993,-0.32575 -1.79493,-0.46875 -0.055,-0.143 -0.55728,-0.25976 -1.11328,-0.25976 -0.935,0 -1.02608,-0.086 -1.20508,-1.125 -0.106,-0.619 -0.30154,-1.53039 -0.43554,-2.02539 -0.134,-0.495 -0.25649,11.82781 -0.27149,27.38281 -0.019,20.088 -0.12056,28.28125 -0.35156,28.28125 -0.179,0 -0.26917,0.16805 -0.20117,0.37305 0.159,0.477 -0.48709,1.12695 -1.12109,1.12695 -0.26903,0 -0.40479,0.13769 -0.30079,0.30469 0.104,0.169 -0.22418,0.38623 -0.74218,0.49023 -0.512,0.102 -0.86802,0.24722 -0.79102,0.32422 0.206,0.206 -1.57786,1.88176 -2.00586,1.88476 -0.2,0.002 -0.83606,0.54027 -1.41406,1.19727 -0.577,0.656 -1.29475,1.19527 -1.59375,1.19727 -0.298,0.001 -0.45942,0.13773 -0.35742,0.30273 0.102,0.165 -0.0318,0.30078 -0.29883,0.30078 -0.267,0 -0.40278,0.13578 -0.30078,0.30078 0.102,0.165 0.0641,0.29883 -0.0859,0.29883 -0.436,0 -1.57337,1.09264 -1.35937,1.30664 0.10695,0.107 0.0576,0.19336 -0.10938,0.19336 -0.1339,0 -0.32706,0.10251 -0.52734,0.23828 -0.0328,0.0357 -0.072,0.061 -0.17578,0.14063 0.0163,-0.009 0.0617,-0.0387 0.0488,-0.0254 -0.10308,0.10588 -0.27427,0.18012 -0.35937,0.30468 -0.007,0.0102 0.0238,-0.0106 0.0351,-0.0156 -0.10285,0.13486 -0.14558,0.16601 -0.19336,0.18359 -0.17491,0.20894 -0.29753,0.40172 -0.21874,0.48047 0.10695,0.107 0.0424,0.19531 -0.14258,0.19531 -0.441,0 -1.86328,1.42905 -1.86328,1.87305 0,0.19 -0.675,0.97991 -1.5,1.75391 -0.825,0.775 -1.5,1.57343 -1.5,1.77343 0,0.2 -0.33896,0.62813 -0.75196,0.95313 -0.412,0.325 -0.75,0.72181 -0.75,0.88281 0,0.16 -0.337,0.65461 -0.75,1.09961 -0.413,0.445 -0.75,0.91778 -0.75,1.05078 0,0.133 -0.338,0.57919 -0.75,0.99219 -0.413,0.412 -0.75,0.91809 -0.75,1.12109 0,0.204 -0.26198,0.56002 -0.58398,0.79102 -0.321,0.232 -0.51564,0.53197 -0.43164,0.66797 0.21,0.34 -0.65627,1.16634 -0.94727,0.90429 -0.12625,-0.11349 -0.1385,-0.0477 -0.0332,0.13868 0.002,0.004 6e-4,0.004 0.004,0.008 0.091,0.15311 0.0837,0.3641 -0.125,0.55664 -0.0832,0.14007 -0.18937,0.28344 -0.32813,0.41406 -0.006,0.10034 -0.0337,0.21171 -0.0879,0.33399 -0.0448,0.10108 -0.0912,0.20122 -0.13477,0.30273 0.17608,0.0324 0.0843,0.2248 -0.28125,0.54102 -0.007,0.006 -0.009,0.0115 -0.0156,0.0176 0.0236,-0.004 0.0573,-0.008 0.0762,-0.0117 -0.16832,0.29838 -0.0978,0.19079 -0.13477,0.28906 0.002,0.008 0.002,0.0157 0.004,0.0234 0.0345,-0.02 0.034,-0.006 0.01,0.043 4.6e-4,0.002 9.5e-4,0.004 0.002,0.006 0.005,0.10634 7.6e-4,0.21213 -0.004,0.31836 -0.018,0.40749 -0.22324,0.60694 -0.42968,0.6211 -0.0478,0.0869 -0.11143,0.20051 -0.0801,0.15234 0.0675,-0.10363 0.085,-0.18466 -0.0254,0.10938 -0.0213,0.15642 -0.18029,0.24025 -0.25391,0.36718 -0.0154,0.0265 0.0456,-0.0428 0.0625,-0.0684 -0.0897,0.21239 -0.11748,0.28708 -0.15625,0.35743 0.25823,0.28799 1.63292,-0.31738 2.66016,-1.27539 0.002,-0.0126 0.004,-0.0255 0.01,-0.0371 0.0322,-0.0705 0.0909,-0.12459 0.13867,-0.18555 0.0121,-0.0155 -0.0205,0.0326 -0.0312,0.0488 0.0811,-0.0706 0.16105,-0.1403 0.24218,-0.21094 -0.009,0.007 0.0149,-0.01 0.0117,-0.008 0.0582,-0.0829 0.0974,-0.13766 0.16797,-0.20508 -6.4e-4,-0.006 -7e-4,-0.0131 -0.002,-0.0195 -0.003,-0.0314 0.0238,-0.0517 0.0547,-0.0703 0.084,-0.15731 0.20997,-0.2461 0.3418,-0.2461 0.004,0 0.008,0.002 0.0117,0.002 0.004,-0.002 0.008,-0.005 0.0117,-0.008 0.1466,-0.0851 0.30341,-0.15089 0.45508,-0.22656 0.0968,-0.0483 0.18524,-0.0774 0.26758,-0.0918 0.0642,-0.0112 0.12193,-0.01 0.17578,-0.004 0.20212,-0.15894 0.37142,-0.361 0.43359,-0.55664 0.102,-0.321 0.51592,-0.66756 0.92187,-0.76953 0.40505,-0.10204 0.90347,-0.40865 1.10547,-0.68165 0.203,-0.273 0.7736,-0.7505 1.26953,-1.0625 0.49504,-0.312 1.00863,-0.7497 1.14063,-0.9707 0.132,-0.222 0.49369,-0.40234 0.80469,-0.40234 0.31,0 0.64609,-0.25635 0.74609,-0.57031 0.099,-0.313 0.51392,-0.65286 0.91992,-0.75586 0.407,-0.102 0.74024,-0.31947 0.74024,-0.48047 0,-0.162 0.27623,-0.29488 0.61523,-0.29493 0.341,0 0.53464,-0.13573 0.43164,-0.30273 -0.104,-0.169 0.21766,-0.38533 0.72266,-0.48633 0.501,-0.1 0.98808,-0.4199 1.08008,-0.71094 0.093,-0.29096 0.58661,-0.61284 1.09961,-0.71484 0.512,-0.103 1.15759,-0.44662 1.43359,-0.76562 0.276,-0.319 0.86655,-0.67025 1.31055,-0.78125 0.444,-0.112 0.80859,-0.32371 0.80859,-0.47071 0,-0.148 0.20122,-0.26755 0.44922,-0.26758 0.247,0 0.44922,-0.12339 0.44922,-0.27539 0,-0.152 0.40539,-0.36558 0.90039,-0.47461 0.495,-0.109 0.90039,-0.3226 0.90039,-0.4746 0,-0.152 0.20222,-0.2754 0.44922,-0.2754 0.248,0 0.45117,-0.12057 0.45117,-0.26757 0,-0.147 0.47278,-0.35389 1.05078,-0.46289 0.577,-0.108 1.05078,-0.32738 1.05078,-0.48438 0,-0.158 0.34458,-0.28711 0.76758,-0.28711 0.422,0 0.69156,-0.11862 0.60156,-0.26562 -0.091,-0.147 0.30682,-0.35585 0.88282,-0.46485 0.576,-0.108 1.04882,-0.32442 1.04882,-0.48242 0,-0.157 0.337,-0.28711 0.75,-0.28711 0.413,0 0.75,-0.11862 0.75,-0.26562 0,-0.146 0.47183,-0.35489 1.04883,-0.46289 l 1.05078,-0.19727 v -3.28906 c 0,-2.001 0.11778,-3.28711 0.30078,-3.28711 0.674,0 0.2336,-64.64149 -0.4414,-64.77149 -0.114,-0.0217 -0.20299,-0.0339 -0.26953,-0.0352 z m -1.08985,0.29101 c -0.165,0 -0.30078,0.20318 -0.30078,0.45118 0,0.248 0.13578,0.44921 0.30078,0.44921 0.165,0 0.29883,-0.20121 0.29883,-0.44921 0,-0.248 -0.13383,-0.45118 -0.29883,-0.45118 z m -0.89062,0.61719 c -0.17163,0.0286 -0.39588,0.17659 -0.60938,0.4336 -0.206,0.248 -0.63506,0.44921 -0.95508,0.44921 -0.31899,0 -0.49653,0.13575 -0.39453,0.30079 0.102,0.165 -0.0936,0.29882 -0.43359,0.29882 -0.34,0 -0.61719,0.12253 -0.61719,0.26953 0,0.147 -0.337,0.35108 -0.75,0.45508 -0.047,0.0118 -0.0764,0.0345 -0.12109,0.0488 -0.001,0.001 -0.002,0.003 -0.004,0.004 -0.0119,0.0247 -0.0197,0.05 -0.0352,0.0742 -0.19568,0.37771 -0.12975,0.2718 -0.3086,0.41601 -0.002,0.006 -0.005,0.0117 -0.008,0.0176 0.0166,-0.0109 0.021,-0.0114 0.0312,-0.0176 -0.011,0.008 -0.0223,0.0152 -0.0332,0.0234 -0.005,0.0116 -0.009,0.0234 -0.0137,0.0352 0.32079,-0.0307 0.94621,-0.32649 1.91211,-0.92774 0.615,-0.383 1.25583,-0.69726 1.42383,-0.69726 0.168,0 0.30664,-0.13579 0.30664,-0.30079 0,-0.165 0.20122,-0.29882 0.44922,-0.29882 0.248,0 0.45117,-0.13579 0.45117,-0.30079 0,-0.2215 -0.11939,-0.31182 -0.29101,-0.2832 z m -3.94922,2.31055 c -0.0158,0.0123 -0.0318,0.024 -0.0469,0.0371 -0.01,0.008 0.0273,-0.006 0.0352,-0.0156 0.004,-0.004 0.008,-0.0153 0.0117,-0.0215 z m -0.29688,0.45508 c -0.0246,0.0205 -0.0122,0.006 -0.0469,0.0371 -0.0113,0.0102 0.0215,-0.0122 0.0391,-0.0234 0.004,-0.005 0.004,-0.007 0.008,-0.0137 z m 7.08985,64.08789 c -0.0495,-0.0285 -0.084,0.21298 -0.084,0.64648 0,0.578 0.0627,0.81439 0.13868,0.52539 0.075,-0.289 0.075,-0.76178 0,-1.05078 -0.019,-0.0722 -0.0382,-0.11161 -0.0547,-0.12109 z m -28.01758,27.69922 c 0.018,0.0634 0.0482,0.12248 0.0781,0.18164 -0.003,-0.0265 -0.004,-0.0547 -0.01,-0.0762 -0.0346,-0.06 -0.0797,-0.14568 -0.0684,-0.10546 z" />
    <path
       id="path7"
       transform="translate(5.3156629,1.7306809)"
       style="fill:#5c902c;fill-rule:evenodd;stroke:none"
       d="m 148.44727,105.73047 c -0.343,-0.019 -0.71422,0.056 -0.82422,0.16601 -0.11,0.11 -0.20138,16.17332 -0.20117,35.69532 v 4.74804 0.20704 0.26171 0.26368 c 0,0.0875 2e-5,0.17427 0,0.26171 -5e-5,0.0873 -2.8e-4,0.17439 0,0.26172 0,0.0851 -0.002,0.17073 0,0.25586 v 0.33594 c 0.0204,0.0446 0.0452,0.0833 0.043,0.14844 10e-4,0.0913 5.2e-4,0.18234 -0.006,0.27344 -0.01,-0.0203 -0.0253,-0.0417 -0.0371,-0.0566 v 0.0117 c 0.0183,0.0416 0.0417,0.0815 0.0547,0.125 0.007,0.0228 -6.4e-4,0.0465 -0.002,0.0703 -0.006,0.11144 -0.0226,0.26398 -0.0332,0.36914 -0.002,0.0233 -0.0151,0.0303 -0.0195,0.0508 v 27.9082 l 1.05078,0.19727 c 0.578,0.108 1.05078,0.31689 1.05078,0.46289 0,0.147 0.337,0.26562 0.75,0.26562 0.413,0 0.75,0.13011 0.75,0.28711 0,0.158 0.47378,0.37638 1.05078,0.48438 0.578,0.108 1.05078,0.31589 1.05078,0.46289 0,0.146 0.26961,0.26562 0.59961,0.26562 0.33,0 0.59961,0.12058 0.59961,0.26758 0,0.147 0.47378,0.35584 1.05078,0.46484 0.578,0.108 1.04883,0.32543 1.04883,0.48243 0,0.158 0.20317,0.2871 0.45117,0.2871 0.247,0 0.45117,0.13383 0.45117,0.29883 0,0.165 0.23444,0.30174 0.52344,0.30274 0.289,0.001 1.133,0.40443 1.875,0.89843 0.743,0.494 1.51956,0.89744 1.72656,0.89844 0.206,0.001 0.375,0.13578 0.375,0.30078 0,0.165 0.26961,0.30078 0.59961,0.30078 0.33,0 0.59961,0.13293 0.59961,0.29493 0,0.162 0.338,0.37942 0.75,0.48242 0.413,0.104 0.75,0.2872 0.75,0.4082 0,0.121 0.50795,0.47797 1.12695,0.79297 0.619,0.315 1.32722,0.78969 1.57422,1.05469 0.248,0.265 0.754,0.57731 1.125,0.69531 0.372,0.117 0.67774,0.34014 0.67774,0.49414 0,0.154 0.20122,0.2793 0.44922,0.2793 0.247,0 0.44921,0.1253 0.44921,0.2793 0,0.15396 0.29149,0.37237 0.64649,0.48437 0.355,0.113 0.92939,0.45477 1.27539,0.75977 0.346,0.306 1.08744,0.96579 1.64844,1.46679 0.561,0.501 1.11261,0.91016 1.22461,0.91016 0.112,0 0.86482,0.60661 1.67382,1.34961 0.809,0.743 1.56946,1.35156 1.68946,1.35156 0.12,0 0.55379,0.338 0.96679,0.75 0.412,0.413 0.87821,0.75 1.03321,0.75 0.155,0 0.35812,0.20122 0.45312,0.44922 0.174,0.453 1.09689,0.64556 1.08789,0.22656 -0.01,-0.533 -0.81751,-2.49528 -1.22851,-2.98828 -0.247,-0.296 -0.70739,-1.04606 -1.02539,-1.66406 -0.318,-0.619 -0.6693,-1.125 -0.7793,-1.125 -0.109,0 -0.28372,-0.337 -0.38672,-0.75 -0.104,-0.412 -0.32042,-0.75 -0.48242,-0.75 -0.162,0 -0.29492,-0.20417 -0.29492,-0.45117 0,-0.248 -0.10438,-0.44922 -0.23438,-0.44922 -0.129,0 -0.49173,-0.43956 -0.80273,-0.97657 -0.312,-0.536 -0.74585,-1.08284 -0.96485,-1.21484 -0.22,-0.132 -0.39843,-0.4282 -0.39843,-0.6582 0,-0.23 -0.2383,-0.5936 -0.5293,-0.8086 -0.292,-0.216 -0.78952,-0.79415 -1.10352,-1.28515 -0.314,-0.491 -1.01836,-1.35588 -1.56836,-1.92188 -0.549,-0.565 -0.99998,-1.13467 -1,-1.26367 0,-0.286 -6.61662,-6.9405 -8.26562,-8.3125 -0.653,-0.543 -1.57102,-1.28539 -2.04102,-1.65039 -0.469,-0.365 -1.26453,-1.03428 -1.76953,-1.48828 -0.504,-0.454 -1.03754,-0.82422 -1.18554,-0.82422 -0.384,0 -1.82258,-1.49066 -2.26758,-2.34766 -0.212,-0.409 -0.375,-1.8077 -0.375,-3.2207 0,-1.375 -0.13383,-2.58159 -0.29883,-2.68359 -0.371,-0.23 -0.38616,4.22709 -0.0195,6.12109 0.14,0.726 0.47133,1.44063 0.73633,1.58985 1.209,0.67599 0.28381,2.2125 -1.24219,2.0625 -0.442,-0.043 -0.67578,0.0972 -0.67578,0.40624 0,0.56201 -0.48617,0.62982 -0.70117,0.0977 -0.112,-0.277 -0.15778,-0.26968 -0.17578,0.0352 -0.02,0.343 -0.10296,0.34704 -0.50196,0.0156 -0.404,-0.336 -0.52544,-0.317 -0.77344,0.125 -0.192,0.343 -0.49409,0.4618 -0.87109,0.3418 -0.324,-0.103 -0.57617,-0.0433 -0.57617,0.13672 0,0.176 -0.338,0.32031 -0.75,0.32031 h -0.75195 v -9.07812 c -0.001,-4.992 -0.0902,-19.76318 -0.19922,-32.82618 -0.194,-23.225 -0.18505,-23.75248 0.37695,-23.89648 0.526,-0.134 0.51964,-0.14964 -0.0527,-0.18164 z M 139.30273,118 c -0.32,0 -0.58203,0.13383 -0.58203,0.29883 0,0.165 0.34558,0.30078 0.76758,0.30078 0.435,0 0.68803,-0.13078 0.58203,-0.30078 -0.102,-0.165 -0.44658,-0.29883 -0.76758,-0.29883 z m 110.7461,0 c -0.33,0 -0.59961,0.13383 -0.59961,0.29883 0,0.165 0.26961,0.30078 0.59961,0.30078 0.33,0 0.59961,-0.13578 0.59961,-0.30078 0,-0.165 -0.26961,-0.29883 -0.59961,-0.29883 z m -108.56836,61.96484 c -0.0368,-9e-4 -0.0583,0.0227 -0.0586,0.0742 -3.2e-4,0.1098 0.10673,0.29899 0.24804,0.50586 0.002,-0.011 0.005,-0.0227 0.006,-0.0332 v -0.002 c -0.0582,-0.11148 -0.0798,-0.22745 -0.0781,-0.34766 -0.0269,-0.0728 -0.0505,-0.10932 -0.0762,-0.17188 -0.0104,-0.003 -0.0324,-0.0252 -0.041,-0.0254 z m 0.80469,0.79493 c -0.0248,0.14481 -0.0528,0.28932 -0.0645,0.43554 -0.002,0.0212 0.049,0.002 0.0625,-0.0137 0.0536,-0.0653 0.11327,-0.13003 0.16602,-0.19726 -0.0512,-0.0731 -0.10332,-0.14425 -0.16406,-0.22461 z m -7.78321,8.6582 c -0.34,0 -0.53364,0.13383 -0.43164,0.29883 0.102,0.165 0.37919,0.30078 0.61719,0.30078 0.238,0 0.43164,-0.13578 0.43164,-0.30078 0,-0.165 -0.27719,-0.29883 -0.61719,-0.29883 z m 3.61914,0.59961 c -0.33,0 -0.60156,0.13383 -0.60156,0.29883 0,0.165 0.27156,0.30078 0.60156,0.30078 0.33,0 0.59961,-0.13578 0.59961,-0.30078 0,-0.165 -0.26961,-0.29883 -0.59961,-0.29883 z m 113.14453,0 c -0.33999,0 -0.61718,0.13383 -0.61718,0.29883 0,0.165 0.19464,0.30078 0.43164,0.30078 0.238,0 0.51714,-0.13578 0.61914,-0.30078 0.102,-0.165 -0.0936,-0.29883 -0.4336,-0.29883 z m -107.42578,0.90039 c -0.34,0 -0.61914,0.13383 -0.61914,0.29883 0,0.165 0.1956,0.30078 0.4336,0.30078 0.237,0 0.51518,-0.13578 0.61718,-0.30078 0.102,-0.165 -0.0916,-0.29883 -0.43164,-0.29883 z m 6.28321,1.5 c -0.56,0 -0.63938,0.0794 -0.35938,0.35937 0.28,0.28 0.43875,0.28 0.71875,0 0.28,-0.28 0.20063,-0.35937 -0.35937,-0.35937 z m 1.95117,0.59961 c -0.247,0 -0.45117,0.13578 -0.45117,0.30078 0,0.165 0.20417,0.30078 0.45117,0.30078 0.248,0 0.44922,-0.13578 0.44922,-0.30078 0,-0.165 -0.20122,-0.30078 -0.44922,-0.30078 z m 15.95703,1.82226 c -0.0896,0.0395 -0.0257,0.20085 0.23828,0.46485 0.267,0.267 0.57845,0.3942 0.68945,0.2832 0.111,-0.111 0.003,-0.32842 -0.24023,-0.48242 -0.3545,-0.224 -0.59787,-0.30513 -0.6875,-0.26563 z m 4.35547,3.49219 c -0.0381,0.0118 -0.0586,0.0378 -0.0586,0.0801 0,0.169 0.1263,0.30664 0.2793,0.30664 0.153,0 0.491,0.21266 0.75,0.47266 0.26,0.259 0.47266,0.34159 0.47266,0.18359 0,-0.158 -0.338,-0.50734 -0.75,-0.77734 -0.30975,-0.20325 -0.57894,-0.30088 -0.69336,-0.26563 z" />
    <path
       id="path8"
       transform="translate(5.3156629,1.7306809)"
       style="fill:#7c0d71;fill-opacity:1;fill-rule:evenodd;stroke:none"
       d="m 161.57812,93.105469 c -0.14984,-0.01762 -0.30767,0.0435 -0.45117,0.1875 -0.11,0.11 -0.20117,15.977721 -0.20117,35.261721 v 35.0625 l 0.79883,0.89648 c 0.44,0.494 0.91945,0.89844 1.06445,0.89844 0.146,0 0.58171,0.30283 0.97071,0.67383 0.388,0.371 1.15703,1.01378 1.70703,1.42578 1.449,1.087 9.2527,8.91395 10.4707,10.50195 0.57,0.743 1.27445,1.6136 1.56445,1.9336 0.29,0.32 0.5293,0.6845 0.5293,0.8125 0,0.127 0.28767,0.50012 0.63867,0.82812 0.613,0.571 0.98736,1.12527 1.81836,2.69727 0.21,0.396 0.82233,1.17447 1.36133,1.73046 0.54,0.55601 0.98242,1.1589 0.98242,1.3379 0,0.18 0.34463,0.73532 0.76563,1.23632 0.421,0.501 0.8425,1.29753 0.9375,1.76954 0.094,0.472 0.35698,0.85742 0.58398,0.85742 0.227,0 0.41406,0.13768 0.41406,0.30468 0,0.166 0.74044,1.50271 1.64844,2.97071 0.908,1.467 1.65234,2.95183 1.65234,3.29883 0,0.346 0.13097,0.6289 0.29297,0.6289 0.162,0 0.38514,0.35597 0.49414,0.79297 0.507,2.018 2.02232,2.31127 2.32032,0.44727 0.269,-1.68 -0.0887,-58.76343 -0.35938,-59.98243 -0.0232,0 -0.0544,-0.0452 -0.0879,-0.11132 -0.18801,0.44418 -0.25863,5.53618 -0.26562,10.0625 -0.011,7.765 -3.71218,20.6187 -7.11914,24.7207 -0.29,0.35 -1.06657,1.29561 -1.72657,2.09961 -0.66,0.803 -1.77547,1.89478 -2.48047,2.42578 l -1.27929,0.96484 -1.04688,-0.79882 c -0.576,-0.439 -1.04973,-0.95168 -1.05273,-1.13868 -0.008,-0.411 -10.60672,-10.99023 -11.01172,-10.99023 -0.157,0 -0.64689,-0.40539 -1.08789,-0.90039 -0.441,-0.495 -0.94228,-0.90039 -1.11328,-0.90039 -0.171,0 -0.64383,-0.33133 -1.04883,-0.73633 l -0.73633,-0.73633 v -34.97265 c 0,-24.414 0.0974,-34.972661 0.31836,-34.972661 0.175,0 0.23481,-0.135781 0.13281,-0.300781 -0.107,-0.1735 -0.24856,-0.269484 -0.39844,-0.287109 z m 30.00391,46.572261 c 0.165,0 -0.0488,-1.83625 -0.0488,-2.15625 0,-0.321 -0.13578,-0.66557 -0.30078,-0.76757 h -0.002 c 0.0123,0.0712 0.008,0.11914 -0.0293,0.11914 -0.0243,0 -0.0775,-0.048 -0.12109,-0.0801 -0.0848,0.0806 -0.14649,0.261 -0.14649,0.54297 0,0.36238 0.35533,1.82146 0.56055,2.22851 0.0269,-0.0627 0.056,-0.0293 0.0879,0.11328 z m -0.50195,-2.88476 c 0.0133,-0.0127 0.0205,-0.0464 0.0351,-0.0527 0.0355,-0.0153 0.0736,-0.0116 0.11524,0.0137 -0.0415,-0.24139 -0.29688,-0.79592 -0.29688,-1.05079 0,-0.33 -0.52836,-0.99218 -0.69336,-0.99218 -0.165,0 0.0937,0.6622 0.0937,0.99218 0,0.28142 0.49344,0.90391 0.7461,1.08985 z m -28.4336,-43.046876 c -0.10598,0.02128 -0.12174,0.154047 -0.0391,0.373047 0.1,0.261 0.31556,0.474609 0.47656,0.474609 0.395,0 0.14822,-0.683031 -0.30078,-0.832031 -0.0547,-0.0185 -0.10139,-0.02272 -0.13672,-0.01563 z m 3.14063,0.621094 c -0.038,-0.01148 -0.0606,-0.0046 -0.0606,0.02344 0,0.29 1.227,1.477078 1.375,1.330078 0.068,-0.069 -0.213,-0.441125 -0.625,-0.828125 -0.309,-0.29025 -0.57536,-0.490937 -0.68945,-0.52539 z m -1.08399,0.826171 c -0.097,0 -0.17773,0.06358 -0.17773,0.142579 0,0.299 3.47938,3.657703 3.98438,3.845703 0.293,0.109 0.62242,0.433703 0.73242,0.720703 0.268,0.697996 5.04767,5.859536 5.26367,5.644536 L 173.5,104.49805 c 0.058,0.0106 0.34098,0.26856 0.66016,0.57422 -1.68135,-2.00939 -9.16138,-9.878911 -9.45704,-9.878911 z m 9.45704,9.878911 c 0.22954,0.27432 0.366,0.45428 0.3457,0.47461 -0.046,-0.008 -0.0718,0.0108 -0.0723,0.0605 -0.005,0.338 1.35916,1.88867 1.66016,1.88867 0.267,0 0.12423,-0.23237 -0.75977,-1.23437 -0.21407,-0.24274 -0.73491,-0.76913 -1.17382,-1.18945 z m 1.93359,2.42382 0.44336,0.80079 c -0.0565,-0.0121 -0.0983,-0.009 -0.12109,0.0137 -0.091,0.091 0.17384,0.43472 0.58984,0.76172 0.246,0.1935 0.44823,0.32235 0.5957,0.39453 -0.0244,-0.059 -0.0383,-0.10114 -0.0176,-0.0977 0.0446,0.009 0.13259,0.0933 0.21094,0.16211 0.20558,0.0228 0.0791,-0.26117 -0.49219,-0.75781 -0.29775,-0.25875 -1.03948,-1.24107 -1.20898,-1.27735 z m 1.70117,2.03516 c -0.048,-0.005 -0.11007,-0.0239 -0.19336,-0.0644 0.081,0.19616 0.33487,0.6394 0.29297,0.70703 -0.096,0.155 0.0797,0.45973 0.38867,0.67773 0.309,0.217 0.65644,0.69928 0.77344,1.07032 0.118,0.37197 0.34114,0.67578 0.49414,0.67578 0.154,0 0.2793,0.14526 0.2793,0.32226 0,0.31798 0.48249,0.87046 0.82226,1.05078 -0.0994,-0.025 -0.1388,0.11062 -0.043,0.0899 -0.33458,0.25733 0.91689,1.95583 1.35742,2.09765 0.0239,-0.0624 0.0606,-0.1 0.11523,-0.0918 -0.005,-0.24109 -0.31822,-0.9795 -0.54492,-1.20703 -0.19275,-0.19277 -0.47488,-0.88669 -0.60547,-0.86133 -0.0461,0.0461 -0.12694,0.0341 -0.21875,-0.006 l 0.21875,0.006 c 0.094,-0.094 -0.0342,-0.37596 -0.28516,-0.62696 -0.251,-0.251 -0.76939,-0.96584 -1.15039,-1.58984 -0.5656,-0.92349 -1.30687,-1.90379 -1.70117,-2.25 z m 4.28711,6.53516 c 6.7e-4,0.0312 0.013,0.0845 0.004,0.0957 -0.0254,0.0254 -0.0714,0.0136 -0.11914,-0.004 -0.0124,0.0324 -0.0263,0.0598 -0.0274,0.11524 -0.005,0.288 0.12225,0.52539 0.28125,0.52539 0.16,0 0.1113,0.30669 0.0156,0.55469 0.13446,0.15413 0.0799,0.19273 0.19726,0.3457 0.11142,0.14517 0.30469,0.17166 0.30469,0.34766 0,0.35317 0.53446,0.86231 0.91406,1.00585 0.0161,-0.0848 0.0871,-0.11852 0.31836,-0.008 0.116,-0.125 0.0429,-0.28733 -0.16406,-0.36133 -0.206,-0.074 -0.375,-0.32459 -0.375,-0.55859 0,-0.234 -0.13578,-0.42578 -0.30078,-0.42578 -0.165,0 -0.29883,-0.17658 -0.29883,-0.39258 0,-0.501 -0.49576,-1.19852 -0.74805,-1.24023 z m 1.88867,2.97851 c -0.0642,0.069 -0.18206,0.0551 -0.31836,0.008 -0.0174,0.0923 0.0303,0.241 0.0293,0.32422 -0.004,0.288 0.78422,1.92383 0.94922,1.92383 0.166,0 0.30078,0.20122 0.30078,0.44922 0,0.247 0.13578,0.45117 0.30078,0.45117 0.446,0 0.35422,-0.36317 -0.30078,-1.20117 -0.2975,-0.38 -0.88477,-1.99305 -0.96094,-1.95508 z m 32.0918,-15.74023 c -0.006,0.008 -0.0122,0.0173 -0.0176,0.0254 -5.7e-4,0.0137 -0.002,0.0324 0.002,0.0195 0.009,-0.0339 0.0122,-0.0293 0.0156,-0.0449 z m -30.59766,18.98047 c -0.165,0 0.17969,0.85754 0.17969,1.10546 0,0.247 0.92289,2.11133 1.08789,2.11133 0.165,0 0.34375,0.45208 0.34375,0.20508 0,-0.248 -1.44633,-3.42187 -1.61133,-3.42187 z m 1.26758,3.21679 c -0.134,0.217 0.0441,1.06386 0.2461,1.13086 0.194,0.065 0.35351,0.37736 0.35351,0.69336 0,0.317 0.13578,0.57422 0.30078,0.57422 0.0461,0 0.0843,-0.006 0.11914,-0.0156 0.007,-0.0203 0.0193,-0.0332 0.043,-0.0332 0.003,0 0.009,0.006 0.0117,0.006 0.20407,-0.11876 0.11249,-0.5135 -0.29297,-1.29492 -0.22425,-0.43125 -0.78125,-1.06055 -0.52148,-0.55469 -0.0458,0.0176 -0.21776,-0.57357 -0.25977,-0.50586 z m 1.07422,2.35547 c -0.0171,0.01 -0.0333,0.0213 -0.0547,0.0273 -0.0402,0.1208 0.17969,0.55518 0.17969,0.76757 0,0.18206 0.28667,0.7162 0.50391,0.98633 0.0895,-0.13418 0.15776,-0.18948 0.21093,-0.14844 0.007,0.006 0.0127,0.0279 0.0195,0.0371 -0.03,-0.28614 -0.13282,-0.7133 -0.13282,-0.875 0,-0.24406 -0.55167,-0.77784 -0.72656,-0.79492 z m 0.85938,1.66992 c 0.0158,0.15097 0.016,0.27344 -0.041,0.27344 -0.0434,0 -0.11197,-0.0658 -0.18945,-0.16211 -0.004,0.006 -0.007,0.007 -0.0117,0.0137 -0.154,0.24 -0.12482,0.53733 0.0762,0.73633 0.183,0.184 0.33398,0.57605 0.33398,0.87305 0,0.25663 0.44459,0.8977 0.67579,1.07617 0.0335,-0.0836 0.0682,-0.15718 0.11914,-0.19531 -0.0558,-0.28669 -0.19532,-0.72336 -0.19532,-0.93946 0,-0.33 -0.12529,-0.60156 -0.27929,-0.60156 -0.153,0 -0.322,-0.30283 -0.375,-0.67383 -0.0313,-0.2179 -0.0681,-0.33994 -0.11328,-0.40039 z m 0.96289,2.61524 c 0.0294,0.15119 0.0413,0.27148 -0.0156,0.27148 -0.0224,0 -0.0671,-0.0481 -0.10351,-0.0762 -0.0415,0.10346 -0.0762,0.22308 -0.0762,0.36523 0,0.33001 0.13383,0.59961 0.29883,0.59961 0.165,0 0.30078,-0.26953 0.30078,-0.59961 0,-0.33 -0.13578,-0.60156 -0.30078,-0.60156 -0.0364,0 -0.0713,0.0169 -0.10351,0.041 z m 0.40429,0.56054 0.11524,0.91016 c -0.0437,0.003 -0.10103,0.1377 -0.20703,0.4082 -0.123,0.312 -0.15014,0.63861 -0.0645,0.72461 0.273,0.274 0.51244,-0.17414 0.39844,-0.74414 -0.053,-0.261 -0.19844,-1.30143 -0.24219,-1.29883 z m 7.38672,8.70313 c -0.0351,-0.15778 -0.0605,1.18536 -0.0605,3.59961 0,3.218 0.0456,4.53578 0.0996,2.92578 0.054,-1.609 0.054,-4.24256 0,-5.85156 -0.0135,-0.40225 -0.0273,-0.62124 -0.0391,-0.67383 z m -50.08789,4.32617 c -0.001,0.0159 -0.003,0.0323 -0.006,0.0547 -8.6e-4,0.006 0.001,0.0143 -0.004,0.0176 -0.004,0.003 -0.0136,-0.0167 -0.0117,-0.0117 0.006,0.0152 0.0142,0.0303 0.0215,0.0449 0.007,0.0229 0.0138,0.0458 0.0215,0.0684 -0.009,-0.0448 -0.01,-0.14599 -0.0215,-0.17383 z m 0.0215,0.17383 c 0.01,0.0483 0.0168,0.1173 0.0234,0.1875 0.003,-0.0428 0.007,-0.0868 0,-0.11523 -0.006,-0.0247 -0.0153,-0.0483 -0.0234,-0.0723 z m 0.0234,0.1875 c -0.002,0.0319 -0.002,0.0603 0,0.0859 9.6e-4,0.002 0.001,0.005 0.002,0.008 -0.002,-0.0193 -2.4e-4,-0.0755 -0.002,-0.0937 z m 50.02539,6.30664 c -0.0441,-0.0195 -0.0757,0.4157 -0.0742,1.1582 0.001,0.99 0.058,1.35932 0.125,0.82032 0.067,-0.54 0.0684,-1.34978 -0.004,-1.80079 -0.017,-0.11275 -0.0322,-0.17121 -0.0469,-0.17773 z m 0.0254,13.84375 c -0.0298,-0.45886 -0.0508,3.76931 -0.0508,11.32031 0,10.067 0.037,14.14264 0.084,9.05664 0.046,-5.087 0.045,-13.32564 -0.002,-18.30664 -0.0115,-1.24525 -0.0213,-1.91736 -0.0312,-2.07031 z m 22.15625,4.89063 c -0.0899,0.007 -0.27976,0.15671 -0.57226,0.44921 -0.586,0.585 -0.60058,0.75988 -0.0449,0.54688 0.235,-0.09 0.50179,-0.3568 0.59179,-0.5918 0.106,-0.2775 0.11494,-0.41179 0.0254,-0.40429 z m -55.44921,0.51367 c -0.0366,0.01 -0.0745,0.0154 -0.10938,0.0293 0.0332,0.0399 0.0545,0.0676 0.0977,0.11719 0.0316,-0.0267 0.0622,-0.0546 0.0918,-0.084 -0.0404,-0.0354 -0.0461,-0.0339 -0.0801,-0.0625 z M 164.35352,172 c -0.0142,0.006 -0.0238,0.003 -0.0371,0.008 0.006,0.007 0.0149,0.0161 0.0215,0.0234 0.005,-0.0106 0.0103,-0.0209 0.0156,-0.0312 z m 62.875,0.0586 c -0.0297,-0.023 -0.18157,0.0264 -0.42383,0.1211 -0.0308,0.0306 -0.0396,0.0618 -0.0781,0.0918 -0.13649,0.10637 -0.26913,0.22004 -0.41015,0.32032 -0.009,0.006 -0.0186,0.0115 -0.0273,0.0176 -0.0989,0.12647 -0.1983,0.2605 -0.26758,0.40429 -0.268,0.556 -0.2516,0.58422 0.0937,0.19922 0.223,-0.248 0.59418,-0.61822 0.82618,-0.82422 0.221,-0.197 0.32098,-0.30383 0.28711,-0.33008 z m -64.92188,0.0664 c -0.12642,0.004 0.002,0.19209 0.4043,0.62109 0.856,0.911 1.04676,0.97313 0.63476,0.20313 -0.166,-0.311 -0.54007,-0.65658 -0.83008,-0.76758 -0.098,-0.0375 -0.16684,-0.0579 -0.20898,-0.0566 z m 55.86328,0.44141 c -0.10239,0.0206 -0.32408,0.18345 -0.6582,0.51757 -0.23698,0.23698 -0.41541,0.54508 -0.44727,0.73438 0.0151,-0.0133 0.001,-0.005 0.0195,-0.0215 0.0797,-0.0234 0.0279,-0.009 0.0762,-0.0234 0.12153,-0.16665 0.25957,-0.33702 0.15039,-0.20313 0.0455,-0.0301 0.21324,-0.14837 0.30664,-0.17187 0.0163,-0.0433 0.0334,-0.0861 0.0508,-0.12891 0.0576,-0.0415 0.11622,-0.0835 0.17383,-0.125 0.003,0.004 0.005,0.0162 0.01,0.0137 0.0287,-0.016 0.0454,-0.0589 0.0781,-0.0625 0.0195,-0.002 -0.0185,0.0356 -0.0234,0.0547 -8.2e-4,0.003 7.6e-4,-7.8e-4 0,0.004 0.0273,-0.0373 0.0591,-0.0776 0.082,-0.11133 0.0261,-0.0639 0.0606,-0.14808 0.0625,-0.15235 0.0259,-0.013 0.0521,-0.0259 0.0781,-0.0391 0.10823,-0.19011 0.13322,-0.30362 0.041,-0.28515 z m -0.5625,0.85351 c -0.0138,0.01 -0.0174,0.0127 -0.0234,0.0215 -0.0223,0.0323 -0.0404,0.0682 -0.0527,0.10547 -0.008,0.0249 -0.0149,0.07 -0.0117,0.0781 0.003,-0.003 0.005,-0.003 0.008,-0.006 0.0301,-0.0649 0.0548,-0.13219 0.0801,-0.19922 z m 5.39453,0.55664 c -0.002,-0.002 -0.0256,0.0192 -0.0293,0.0195 -0.049,0.0955 -0.11721,0.20573 -0.11914,0.20899 0.0935,-0.1174 0.16361,-0.21355 0.14843,-0.22852 z m -58.42773,0.32422 c -0.0306,0.001 -0.0488,0.0173 -0.0488,0.0488 0,0.127 0.27156,0.46114 0.60156,0.74414 0.33,0.282 0.59961,0.4102 0.59961,0.2832 0,-0.127 -0.26961,-0.46214 -0.59961,-0.74414 -0.2475,-0.21225 -0.46104,-0.3362 -0.55273,-0.33203 z m 60.1543,0 c -0.12619,0.0369 -0.34575,0.19161 -0.5625,0.40234 -0.10615,0.10338 -0.15585,0.17313 -0.22852,0.25782 -0.0394,0.0717 -0.0698,0.13017 -0.14453,0.22851 -0.0297,0.0745 -0.048,0.0794 -0.0937,0.11719 -0.0664,0.18846 0.12407,0.15943 0.5957,-0.2793 0.359,-0.335 0.59539,-0.65965 0.52539,-0.72265 -0.0178,-0.0157 -0.0497,-0.0129 -0.0918,-0.004 z m -58.6543,1.5 c -0.0305,0.002 -0.0469,0.0171 -0.0469,0.0488 0,0.126 0.26961,0.46114 0.59961,0.74414 0.33,0.283 0.59961,0.4102 0.59961,0.2832 0,-0.126 -0.26961,-0.46114 -0.59961,-0.74414 -0.2475,-0.21225 -0.46132,-0.33662 -0.55273,-0.33203 z m 57.1582,0.24024 c -0.0219,0.016 -0.0472,0.0216 -0.19922,0.1582 -0.0273,0.0245 0.0627,-0.0374 0.0937,-0.0566 -0.0187,0.0141 -0.0379,0.0268 -0.0566,0.041 l -0.002,0.002 c 0.0221,-0.001 -0.0315,0.0448 -0.043,0.0703 -0.002,0.004 0.01,0.003 0.01,0.006 -0.004,0.007 -0.004,0.005 -0.008,0.0117 0.0725,-0.0808 0.15943,-0.16668 0.20508,-0.23242 z m -52.16797,5 c -0.14125,-0.0365 -0.13464,0.14323 0.13086,0.56836 0.204,0.32696 0.54572,0.66114 0.76172,0.74414 0.246,0.094 0.19247,-0.12099 -0.14453,-0.58399 -0.3195,-0.439 -0.6068,-0.69201 -0.74805,-0.72851 z m 2.28711,2.67382 c -0.06,0 0.0444,0.33896 0.23242,0.75196 0.188,0.412 0.45761,0.75 0.59961,0.75 0.142,0 0.0386,-0.338 -0.23242,-0.75 -0.27,-0.413 -0.53961,-0.75196 -0.59961,-0.75196 z m 42.66602,0 c -0.06,0 -0.32961,0.33896 -0.59961,0.75196 -0.271,0.412 -0.37638,0.75 -0.23438,0.75 0.142,0 0.41357,-0.338 0.60157,-0.75 0.188,-0.413 0.29242,-0.75196 0.23242,-0.75196 z m -11.43164,6.30274 c -0.082,0 -0.15039,0.18983 -0.15039,0.42383 0,0.234 -0.168,0.49412 -0.375,0.57812 -0.224,0.09 -0.16261,0.15883 0.15039,0.17383 0.333,0.015 0.52734,-0.19517 0.52734,-0.57617 0,-0.33 -0.0693,-0.59961 -0.15234,-0.59961 z m 5.97461,5.57031 c -0.0561,-0.005 -0.13375,0.0975 -0.23438,0.25 0.005,-0.005 0.009,-0.0104 0.0137,-0.0156 -0.0106,0.0143 -0.014,0.0195 -0.0312,0.043 -0.009,0.0132 -0.0163,0.0248 -0.0254,0.0391 0.10042,-0.14465 0.11204,-0.16313 0.27735,-0.31641 z m -29.49024,0.15625 c -0.0173,0.0391 0.0649,0.20544 0.23438,0.52344 0.204,0.384 0.29712,0.89762 0.20312,1.14062 -0.095,0.248 -0.04,0.36277 0.12696,0.25977 0.463,-0.286 0.34787,-1.2325 -0.20313,-1.6875 -0.2275,-0.1875 -0.34408,-0.27545 -0.36133,-0.23633 z m 18.3418,3.30859 c -0.054,-6.2e-4 -0.0762,0.0591 -0.0762,0.18165 0,0.0258 -0.0126,0.0734 -0.0156,0.10546 -0.007,0.004 -0.0305,0.0248 0.0391,-0.0508 -0.008,0.0158 -0.0187,0.0339 -0.0254,0.0469 0.004,-0.003 0.008,-0.006 0.0117,-0.01 0.0476,-0.0757 0.10302,-0.14161 0.1543,-0.21094 -0.0253,-0.014 -0.0699,-0.0623 -0.0879,-0.0625 z m -0.082,0.29493 c -0.001,0.001 -0.003,4.5e-4 -0.004,0.002 4.6e-4,-6.6e-4 -0.003,0.008 -0.002,0.006 0.002,-0.003 0.004,-0.005 0.006,-0.008 z m -1.21289,1.17187 c -0.34,0 -0.53364,0.13578 -0.43164,0.30078 0.0455,0.0736 0.13425,0.13694 0.23047,0.18946 0.023,-0.0187 0.0332,-0.0393 0.0664,-0.0566 8.7e-4,-0.001 0.003,-0.006 0.004,-0.006 0.0166,-0.0893 0.0434,-0.14305 0.15234,-0.29102 0.002,-0.002 8e-4,0.005 0.002,0.008 0.0444,-0.043 0.0885,-0.0861 0.13282,-0.1289 -0.0511,-0.007 -0.10095,-0.0156 -0.15625,-0.0156 z m 0.21679,0.0215 c -0.008,0.0718 -0.0325,0.18421 -0.0215,0.13867 0.0111,-0.0457 0.0191,-0.0923 0.0273,-0.13867 -0.002,-3.5e-4 -0.004,3.3e-4 -0.006,0 z m 16.39649,1.51367 c -0.0411,0 -0.11666,0.0237 -0.17774,0.0371 0.1027,0.008 0.19783,0.0165 0.30274,0.0273 -0.0109,-0.0423 -0.052,-0.0644 -0.125,-0.0644 z" />
  </g>
</svg>
